<mxfile host="Electron" modified="2023-08-21T15:57:43.650Z" agent="Mozilla/5.0 (Windows NT 10.0; Win64; x64) AppleWebKit/537.36 (KHTML, like Gecko) draw.io/21.6.8 Chrome/114.0.5735.289 Electron/25.5.0 Safari/537.36" etag="3iYt-65s5aAEZ065KCbg" version="21.6.8" type="device" pages="6">
  <diagram name="17.19" id="FospGFHecYny14Wc0TTa">
    <mxGraphModel dx="877" dy="545" grid="1" gridSize="10" guides="1" tooltips="1" connect="1" arrows="1" fold="1" page="1" pageScale="1" pageWidth="1169" pageHeight="827" math="0" shadow="0">
      <root>
        <mxCell id="0" />
        <mxCell id="1" value="uml" style="" parent="0" />
        <mxCell id="h2AUMDtvGqtxGIMJl9mW-1" value="&lt;b&gt;sd&lt;/b&gt; UserAccess" style="shape=umlFrame;whiteSpace=wrap;html=1;pointerEvents=0;recursiveResize=0;container=1;collapsible=0;width=160;" vertex="1" parent="1">
          <mxGeometry x="10" y="10" width="360" height="360" as="geometry" />
        </mxCell>
        <mxCell id="h2AUMDtvGqtxGIMJl9mW-2" value=":User" style="shape=umlLifeline;perimeter=lifelinePerimeter;whiteSpace=wrap;html=1;container=1;dropTarget=0;collapsible=0;recursiveResize=0;outlineConnect=0;portConstraint=eastwest;newEdgeStyle={&quot;edgeStyle&quot;:&quot;elbowEdgeStyle&quot;,&quot;elbow&quot;:&quot;vertical&quot;,&quot;curved&quot;:0,&quot;rounded&quot;:0};" vertex="1" parent="h2AUMDtvGqtxGIMJl9mW-1">
          <mxGeometry x="40" y="40" width="100" height="320" as="geometry" />
        </mxCell>
        <mxCell id="h2AUMDtvGqtxGIMJl9mW-6" style="edgeStyle=elbowEdgeStyle;rounded=0;orthogonalLoop=1;jettySize=auto;html=1;elbow=horizontal;curved=0;endArrow=open;verticalAlign=bottom;endFill=0;labelBackgroundColor=none;endSize=12;" edge="1" parent="h2AUMDtvGqtxGIMJl9mW-1">
          <mxGeometry relative="1" as="geometry">
            <mxPoint x="269.5" y="191" as="sourcePoint" />
            <mxPoint x="89.5" y="191" as="targetPoint" />
          </mxGeometry>
        </mxCell>
        <mxCell id="h2AUMDtvGqtxGIMJl9mW-7" value="CardOut" style="edgeLabel;html=1;align=center;verticalAlign=middle;resizable=0;points=[];" vertex="1" connectable="0" parent="h2AUMDtvGqtxGIMJl9mW-6">
          <mxGeometry x="-0.4944" y="3" relative="1" as="geometry">
            <mxPoint x="-43" y="-19" as="offset" />
          </mxGeometry>
        </mxCell>
        <mxCell id="h2AUMDtvGqtxGIMJl9mW-10" style="edgeStyle=elbowEdgeStyle;rounded=0;orthogonalLoop=1;jettySize=auto;html=1;elbow=vertical;curved=0;labelBackgroundColor=none;endArrow=open;verticalAlign=bottom;endFill=0;endSize=12;" edge="1" parent="h2AUMDtvGqtxGIMJl9mW-1">
          <mxGeometry relative="1" as="geometry">
            <mxPoint x="269.5" y="240" as="sourcePoint" />
            <mxPoint x="89.5" y="240" as="targetPoint" />
          </mxGeometry>
        </mxCell>
        <mxCell id="h2AUMDtvGqtxGIMJl9mW-11" value="msg(&quot;Please Enter&quot;)" style="edgeLabel;html=1;align=center;verticalAlign=middle;resizable=0;points=[];" vertex="1" connectable="0" parent="h2AUMDtvGqtxGIMJl9mW-10">
          <mxGeometry x="0.4056" y="1" relative="1" as="geometry">
            <mxPoint x="38" y="-11" as="offset" />
          </mxGeometry>
        </mxCell>
        <mxCell id="h2AUMDtvGqtxGIMJl9mW-3" value=":ACSystem" style="shape=umlLifeline;perimeter=lifelinePerimeter;whiteSpace=wrap;html=1;container=1;dropTarget=0;collapsible=0;recursiveResize=0;outlineConnect=0;portConstraint=eastwest;newEdgeStyle={&quot;edgeStyle&quot;:&quot;elbowEdgeStyle&quot;,&quot;elbow&quot;:&quot;vertical&quot;,&quot;curved&quot;:0,&quot;rounded&quot;:0};" vertex="1" parent="h2AUMDtvGqtxGIMJl9mW-1">
          <mxGeometry x="220" y="40" width="100" height="320" as="geometry" />
        </mxCell>
        <mxCell id="h2AUMDtvGqtxGIMJl9mW-4" value="ref" style="shape=umlFrame;whiteSpace=wrap;html=1;pointerEvents=0;recursiveResize=0;container=1;collapsible=0;width=50;swimlaneFillColor=default;" vertex="1" parent="h2AUMDtvGqtxGIMJl9mW-1">
          <mxGeometry x="20" y="90" width="320" height="70" as="geometry" />
        </mxCell>
        <mxCell id="h2AUMDtvGqtxGIMJl9mW-5" value="EstablishAccess(&quot;Illigal PIN&quot;)" style="text;align=center;html=1;verticalAlign=middle;" vertex="1" parent="h2AUMDtvGqtxGIMJl9mW-4">
          <mxGeometry width="180" height="30" relative="1" as="geometry">
            <mxPoint x="70" y="25" as="offset" />
          </mxGeometry>
        </mxCell>
        <mxCell id="h2AUMDtvGqtxGIMJl9mW-8" value="opt" style="shape=umlFrame;whiteSpace=wrap;html=1;pointerEvents=0;recursiveResize=0;container=1;collapsible=0;width=50;" vertex="1" parent="h2AUMDtvGqtxGIMJl9mW-1">
          <mxGeometry x="10" y="210" width="340" height="120" as="geometry" />
        </mxCell>
        <mxCell id="h2AUMDtvGqtxGIMJl9mW-12" value="ref" style="shape=umlFrame;whiteSpace=wrap;html=1;pointerEvents=0;recursiveResize=0;container=1;collapsible=0;width=50;swimlaneFillColor=default;" vertex="1" parent="h2AUMDtvGqtxGIMJl9mW-8">
          <mxGeometry x="20" y="50" width="300" height="60" as="geometry" />
        </mxCell>
        <mxCell id="h2AUMDtvGqtxGIMJl9mW-13" value="OpenDoor" style="text;align=center;html=1;" vertex="1" parent="h2AUMDtvGqtxGIMJl9mW-12">
          <mxGeometry width="100" height="20" relative="1" as="geometry">
            <mxPoint x="100" y="20" as="offset" />
          </mxGeometry>
        </mxCell>
        <mxCell id="h2AUMDtvGqtxGIMJl9mW-14" value="&lt;b&gt;Figure 17.19 InteractionUse&lt;/b&gt;" style="text;html=1;align=left;verticalAlign=middle;resizable=0;points=[];autosize=1;strokeColor=none;fillColor=none;fontSize=11;fontFamily=Helvetica;fontColor=default;" vertex="1" parent="1">
          <mxGeometry x="10" y="370" width="170" height="30" as="geometry" />
        </mxCell>
        <mxCell id="h2AUMDtvGqtxGIMJl9mW-15" value="annotation" parent="0" />
        <mxCell id="QKcd6evpnW9TLaWmWsAH-1" value="" style="group" vertex="1" connectable="0" parent="h2AUMDtvGqtxGIMJl9mW-15">
          <mxGeometry x="341" y="50" width="204" height="247" as="geometry" />
        </mxCell>
        <mxCell id="h2AUMDtvGqtxGIMJl9mW-18" style="rounded=0;orthogonalLoop=1;jettySize=auto;html=1;endArrow=blockThin;endFill=0;endSize=12;strokeColor=#FF0000;" edge="1" parent="QKcd6evpnW9TLaWmWsAH-1" source="h2AUMDtvGqtxGIMJl9mW-17">
          <mxGeometry relative="1" as="geometry">
            <mxPoint x="10" y="81" as="targetPoint" />
          </mxGeometry>
        </mxCell>
        <mxCell id="h2AUMDtvGqtxGIMJl9mW-19" style="rounded=0;orthogonalLoop=1;jettySize=auto;html=1;endArrow=blockThin;strokeColor=#FF0000;endFill=0;endSize=12;" edge="1" parent="QKcd6evpnW9TLaWmWsAH-1" source="h2AUMDtvGqtxGIMJl9mW-17">
          <mxGeometry relative="1" as="geometry">
            <mxPoint y="247" as="targetPoint" />
          </mxGeometry>
        </mxCell>
        <mxCell id="h2AUMDtvGqtxGIMJl9mW-17" value="InteractionUse" style="text;html=1;align=center;verticalAlign=middle;resizable=0;points=[];autosize=1;strokeColor=none;fillColor=none;fontColor=#FF0000;fontStyle=2;fontSize=12;" vertex="1" parent="QKcd6evpnW9TLaWmWsAH-1">
          <mxGeometry x="89" width="100" height="30" as="geometry" />
        </mxCell>
      </root>
    </mxGraphModel>
  </diagram>
  <diagram id="2BfyTLejB_MGNEUfydIc" name="17.20">
    <mxGraphModel dx="877" dy="545" grid="1" gridSize="10" guides="1" tooltips="1" connect="1" arrows="1" fold="1" page="1" pageScale="1" pageWidth="1169" pageHeight="827" math="0" shadow="0">
      <root>
        <mxCell id="0" />
        <mxCell id="1" value="uml" parent="0" />
        <mxCell id="8Y3qWXDnX3vCA5Earrus-1" value="&lt;b&gt;sd &lt;/b&gt;a_op_b(int x, inout w): Verdict" style="shape=umlFrame;whiteSpace=wrap;html=1;pointerEvents=0;recursiveResize=0;container=1;collapsible=0;width=240;height=30;" vertex="1" parent="1">
          <mxGeometry width="510" height="440" as="geometry" />
        </mxCell>
        <mxCell id="8Y3qWXDnX3vCA5Earrus-6" style="edgeStyle=elbowEdgeStyle;rounded=0;orthogonalLoop=1;jettySize=auto;html=1;elbow=vertical;curved=0;endArrow=open;strokeColor=default;endFill=0;endSize=12;labelBackgroundColor=none;verticalAlign=bottom;" edge="1" parent="8Y3qWXDnX3vCA5Earrus-1">
          <mxGeometry relative="1" as="geometry">
            <mxPoint x="79.5" y="110" as="sourcePoint" />
            <mxPoint x="199.5" y="110" as="targetPoint" />
          </mxGeometry>
        </mxCell>
        <mxCell id="HYittMBN64DLMbu1OiNh-1" value="s1(x)" style="edgeLabel;html=1;align=center;verticalAlign=middle;resizable=0;points=[];fontSize=11;fontFamily=Helvetica;fontColor=default;" vertex="1" connectable="0" parent="8Y3qWXDnX3vCA5Earrus-6">
          <mxGeometry x="-0.375" y="-1" relative="1" as="geometry">
            <mxPoint x="20" y="-10" as="offset" />
          </mxGeometry>
        </mxCell>
        <mxCell id="HYittMBN64DLMbu1OiNh-9" style="edgeStyle=elbowEdgeStyle;shape=connector;curved=0;rounded=0;orthogonalLoop=1;jettySize=auto;elbow=vertical;html=1;labelBackgroundColor=none;strokeColor=default;fontFamily=Helvetica;fontSize=11;fontColor=default;endArrow=open;endFill=0;endSize=12;" edge="1" parent="8Y3qWXDnX3vCA5Earrus-1">
          <mxGeometry relative="1" as="geometry">
            <mxPoint x="79.5" y="260" as="sourcePoint" />
            <mxPoint x="319.5" y="260" as="targetPoint" />
          </mxGeometry>
        </mxCell>
        <mxCell id="HYittMBN64DLMbu1OiNh-10" value="put(xc)" style="edgeLabel;html=1;align=center;verticalAlign=middle;resizable=0;points=[];fontSize=11;fontFamily=Helvetica;fontColor=default;" vertex="1" connectable="0" parent="HYittMBN64DLMbu1OiNh-9">
          <mxGeometry x="-0.3458" y="-1" relative="1" as="geometry">
            <mxPoint y="-13" as="offset" />
          </mxGeometry>
        </mxCell>
        <mxCell id="HYittMBN64DLMbu1OiNh-11" style="edgeStyle=elbowEdgeStyle;shape=connector;curved=0;rounded=0;orthogonalLoop=1;jettySize=auto;elbow=vertical;html=1;labelBackgroundColor=none;strokeColor=default;fontFamily=Helvetica;fontSize=11;fontColor=default;endArrow=open;endFill=0;endSize=12;" edge="1" parent="8Y3qWXDnX3vCA5Earrus-1">
          <mxGeometry relative="1" as="geometry">
            <mxPoint x="79.5" y="290" as="sourcePoint" />
            <mxPoint x="439.5" y="290" as="targetPoint" />
          </mxGeometry>
        </mxCell>
        <mxCell id="HYittMBN64DLMbu1OiNh-12" value="put(fail)" style="edgeLabel;html=1;align=center;verticalAlign=middle;resizable=0;points=[];fontSize=11;fontFamily=Helvetica;fontColor=default;" vertex="1" connectable="0" parent="HYittMBN64DLMbu1OiNh-11">
          <mxGeometry x="0.1583" relative="1" as="geometry">
            <mxPoint x="1" y="-10" as="offset" />
          </mxGeometry>
        </mxCell>
        <mxCell id="HYittMBN64DLMbu1OiNh-13" style="edgeStyle=elbowEdgeStyle;shape=connector;curved=0;rounded=0;orthogonalLoop=1;jettySize=auto;elbow=vertical;html=1;labelBackgroundColor=none;strokeColor=default;fontFamily=Helvetica;fontSize=11;fontColor=default;endArrow=open;endFill=0;endSize=12;" edge="1" parent="8Y3qWXDnX3vCA5Earrus-1">
          <mxGeometry relative="1" as="geometry">
            <mxPoint x="79.5" y="350" as="sourcePoint" />
            <mxPoint x="439.5" y="350" as="targetPoint" />
          </mxGeometry>
        </mxCell>
        <mxCell id="HYittMBN64DLMbu1OiNh-14" value="put(pass)" style="edgeLabel;html=1;align=center;verticalAlign=middle;resizable=0;points=[];fontSize=11;fontFamily=Helvetica;fontColor=default;" vertex="1" connectable="0" parent="HYittMBN64DLMbu1OiNh-13">
          <mxGeometry x="0.0861" y="-2" relative="1" as="geometry">
            <mxPoint x="11" y="10" as="offset" />
          </mxGeometry>
        </mxCell>
        <mxCell id="8Y3qWXDnX3vCA5Earrus-2" value=":xx" style="shape=umlLifeline;perimeter=lifelinePerimeter;whiteSpace=wrap;html=1;container=1;dropTarget=0;collapsible=0;recursiveResize=0;outlineConnect=0;portConstraint=eastwest;newEdgeStyle={&quot;edgeStyle&quot;:&quot;elbowEdgeStyle&quot;,&quot;elbow&quot;:&quot;vertical&quot;,&quot;curved&quot;:0,&quot;rounded&quot;:0};" vertex="1" parent="8Y3qWXDnX3vCA5Earrus-1">
          <mxGeometry x="40" y="40" width="80" height="380" as="geometry" />
        </mxCell>
        <mxCell id="8Y3qWXDnX3vCA5Earrus-3" value=":yy" style="shape=umlLifeline;perimeter=lifelinePerimeter;whiteSpace=wrap;html=1;container=1;dropTarget=0;collapsible=0;recursiveResize=0;outlineConnect=0;portConstraint=eastwest;newEdgeStyle={&quot;edgeStyle&quot;:&quot;elbowEdgeStyle&quot;,&quot;elbow&quot;:&quot;vertical&quot;,&quot;curved&quot;:0,&quot;rounded&quot;:0};" vertex="1" parent="8Y3qWXDnX3vCA5Earrus-1">
          <mxGeometry x="160" y="40" width="80" height="380" as="geometry" />
        </mxCell>
        <mxCell id="8Y3qWXDnX3vCA5Earrus-4" value="w" style="shape=umlLifeline;perimeter=lifelinePerimeter;whiteSpace=wrap;html=1;container=1;dropTarget=0;collapsible=0;recursiveResize=0;outlineConnect=0;portConstraint=eastwest;newEdgeStyle={&quot;edgeStyle&quot;:&quot;elbowEdgeStyle&quot;,&quot;elbow&quot;:&quot;vertical&quot;,&quot;curved&quot;:0,&quot;rounded&quot;:0};" vertex="1" parent="8Y3qWXDnX3vCA5Earrus-1">
          <mxGeometry x="280" y="40" width="80" height="380" as="geometry" />
        </mxCell>
        <mxCell id="8Y3qWXDnX3vCA5Earrus-5" value="a_op_b" style="shape=umlLifeline;perimeter=lifelinePerimeter;whiteSpace=wrap;html=1;container=1;dropTarget=0;collapsible=0;recursiveResize=0;outlineConnect=0;portConstraint=eastwest;newEdgeStyle={&quot;edgeStyle&quot;:&quot;elbowEdgeStyle&quot;,&quot;elbow&quot;:&quot;vertical&quot;,&quot;curved&quot;:0,&quot;rounded&quot;:0};" vertex="1" parent="8Y3qWXDnX3vCA5Earrus-1">
          <mxGeometry x="400" y="40" width="80" height="380" as="geometry" />
        </mxCell>
        <mxCell id="HYittMBN64DLMbu1OiNh-2" value="ref" style="shape=umlFrame;whiteSpace=wrap;html=1;pointerEvents=0;recursiveResize=0;container=1;collapsible=0;width=50;fontFamily=Helvetica;fontSize=11;fontColor=default;swimlaneFillColor=default;" vertex="1" parent="8Y3qWXDnX3vCA5Earrus-1">
          <mxGeometry x="30" y="130" width="310" height="70" as="geometry" />
        </mxCell>
        <mxCell id="HYittMBN64DLMbu1OiNh-3" value=":xx.xc = a_util_b(31, w: 12): 9" style="text;align=center;html=1;fontSize=14;fontFamily=Helvetica;fontColor=default;verticalAlign=middle;" vertex="1" parent="HYittMBN64DLMbu1OiNh-2">
          <mxGeometry width="210" height="30" relative="1" as="geometry">
            <mxPoint x="50" y="20" as="offset" />
          </mxGeometry>
        </mxCell>
        <mxCell id="HYittMBN64DLMbu1OiNh-6" value="alt" style="shape=umlFrame;whiteSpace=wrap;html=1;pointerEvents=0;recursiveResize=0;container=1;collapsible=0;width=50;fontFamily=Helvetica;fontSize=11;fontColor=default;height=30;" vertex="1" parent="8Y3qWXDnX3vCA5Earrus-1">
          <mxGeometry x="30" y="220" width="450" height="170" as="geometry" />
        </mxCell>
        <mxCell id="HYittMBN64DLMbu1OiNh-7" value="[xc &amp;gt; 8]" style="text;html=1;fontSize=11;fontFamily=Helvetica;fontColor=default;" vertex="1" parent="HYittMBN64DLMbu1OiNh-6">
          <mxGeometry width="60" height="30" relative="1" as="geometry">
            <mxPoint x="54" y="2" as="offset" />
          </mxGeometry>
        </mxCell>
        <mxCell id="HYittMBN64DLMbu1OiNh-8" value="[xc &amp;lt;= 8]" style="line;strokeWidth=1;dashed=1;labelPosition=center;verticalLabelPosition=bottom;align=left;verticalAlign=top;spacingLeft=20;spacingTop=0;html=1;whiteSpace=wrap;fontFamily=Helvetica;fontSize=11;fontColor=default;" vertex="1" parent="HYittMBN64DLMbu1OiNh-6">
          <mxGeometry y="95" width="450" height="10" as="geometry" />
        </mxCell>
        <mxCell id="HYittMBN64DLMbu1OiNh-15" value="&lt;b&gt;Figure 17.20 InteractionUse with value return&lt;/b&gt;" style="text;html=1;align=left;verticalAlign=middle;resizable=0;points=[];autosize=1;strokeColor=none;fillColor=none;fontSize=11;fontFamily=Helvetica;fontColor=default;" vertex="1" parent="1">
          <mxGeometry y="440" width="260" height="30" as="geometry" />
        </mxCell>
        <mxCell id="dvkjOlle35CsoIxGxUXD-1" value="annotation" parent="0" />
        <mxCell id="dvkjOlle35CsoIxGxUXD-3" style="rounded=0;orthogonalLoop=1;jettySize=auto;html=1;endArrow=blockThin;endFill=0;endSize=12;strokeColor=#FF0000;" edge="1" parent="dvkjOlle35CsoIxGxUXD-1" source="dvkjOlle35CsoIxGxUXD-5">
          <mxGeometry relative="1" as="geometry">
            <mxPoint x="483" y="61" as="targetPoint" />
          </mxGeometry>
        </mxCell>
        <mxCell id="dvkjOlle35CsoIxGxUXD-5" value="return parameter as&lt;br style=&quot;font-size: 12px;&quot;&gt;Lifeline" style="text;html=1;align=left;verticalAlign=middle;resizable=0;points=[];autosize=1;strokeColor=none;fillColor=none;fontColor=#FF0000;fontStyle=2;fontSize=12;container=0;" vertex="1" parent="dvkjOlle35CsoIxGxUXD-1">
          <mxGeometry x="599" y="15" width="130" height="40" as="geometry" />
        </mxCell>
        <mxCell id="dvkjOlle35CsoIxGxUXD-7" style="shape=connector;rounded=0;orthogonalLoop=1;jettySize=auto;elbow=vertical;html=1;labelBackgroundColor=default;strokeColor=#FF0000;fontFamily=Helvetica;fontSize=11;fontColor=default;endArrow=blockThin;endFill=0;endSize=12;" edge="1" parent="dvkjOlle35CsoIxGxUXD-1" source="dvkjOlle35CsoIxGxUXD-6">
          <mxGeometry relative="1" as="geometry">
            <mxPoint x="367" y="60" as="targetPoint" />
          </mxGeometry>
        </mxCell>
        <mxCell id="dvkjOlle35CsoIxGxUXD-6" value="input parameter as&lt;br style=&quot;font-size: 12px;&quot;&gt;Lifeline" style="text;html=1;align=left;verticalAlign=middle;resizable=0;points=[];autosize=1;strokeColor=none;fillColor=none;fontColor=#FF0000;fontStyle=2;fontSize=12;container=0;" vertex="1" parent="dvkjOlle35CsoIxGxUXD-1">
          <mxGeometry x="599" y="85" width="120" height="40" as="geometry" />
        </mxCell>
        <mxCell id="dvkjOlle35CsoIxGxUXD-10" style="shape=connector;rounded=0;orthogonalLoop=1;jettySize=auto;elbow=vertical;html=1;labelBackgroundColor=default;strokeColor=#FF0000;fontFamily=Helvetica;fontSize=11;fontColor=default;endArrow=blockThin;endFill=0;endSize=12;exitX=0.014;exitY=0.58;exitDx=0;exitDy=0;exitPerimeter=0;" edge="1" parent="dvkjOlle35CsoIxGxUXD-1" source="dvkjOlle35CsoIxGxUXD-8">
          <mxGeometry relative="1" as="geometry">
            <mxPoint x="282" y="164" as="targetPoint" />
          </mxGeometry>
        </mxCell>
        <mxCell id="dvkjOlle35CsoIxGxUXD-8" value="InteractionUse&lt;br style=&quot;font-size: 12px;&quot;&gt;with valuereturn" style="text;html=1;align=left;verticalAlign=middle;resizable=0;points=[];autosize=1;strokeColor=none;fillColor=none;fontColor=#FF0000;fontStyle=2;fontSize=12;container=0;" vertex="1" parent="dvkjOlle35CsoIxGxUXD-1">
          <mxGeometry x="599" y="165" width="110" height="40" as="geometry" />
        </mxCell>
        <mxCell id="dvkjOlle35CsoIxGxUXD-11" style="shape=connector;rounded=0;orthogonalLoop=1;jettySize=auto;elbow=vertical;html=1;labelBackgroundColor=default;strokeColor=#FF0000;fontFamily=Helvetica;fontSize=11;fontColor=default;endArrow=blockThin;endFill=0;endSize=12;" edge="1" parent="dvkjOlle35CsoIxGxUXD-1" source="dvkjOlle35CsoIxGxUXD-9">
          <mxGeometry relative="1" as="geometry">
            <mxPoint x="249" y="177" as="targetPoint" />
          </mxGeometry>
        </mxCell>
        <mxCell id="dvkjOlle35CsoIxGxUXD-9" value="argument with output" style="text;html=1;align=left;verticalAlign=middle;resizable=0;points=[];autosize=1;strokeColor=none;fillColor=none;fontColor=#FF0000;fontStyle=2;fontSize=12;container=0;" vertex="1" parent="dvkjOlle35CsoIxGxUXD-1">
          <mxGeometry x="599" y="250" width="140" height="30" as="geometry" />
        </mxCell>
      </root>
    </mxGraphModel>
  </diagram>
  <diagram id="cnuKFw16CzWgVgmk-bwB" name="17.21">
    <mxGraphModel dx="877" dy="545" grid="1" gridSize="10" guides="1" tooltips="1" connect="1" arrows="1" fold="1" page="1" pageScale="1" pageWidth="1169" pageHeight="827" math="0" shadow="0">
      <root>
        <mxCell id="0" />
        <mxCell id="1" value="uml" parent="0" />
        <mxCell id="GKMRpQgpA7d5Ei9l9tQw-1" value="&lt;b&gt;sd&lt;/b&gt; UserAccess" style="shape=umlFrame;whiteSpace=wrap;html=1;pointerEvents=0;recursiveResize=0;container=1;collapsible=0;width=160;" vertex="1" parent="1">
          <mxGeometry x="10" y="10" width="360" height="360" as="geometry" />
        </mxCell>
        <mxCell id="GKMRpQgpA7d5Ei9l9tQw-2" value=":User" style="shape=umlLifeline;perimeter=lifelinePerimeter;whiteSpace=wrap;html=1;container=1;dropTarget=0;collapsible=0;recursiveResize=0;outlineConnect=0;portConstraint=eastwest;newEdgeStyle={&quot;edgeStyle&quot;:&quot;elbowEdgeStyle&quot;,&quot;elbow&quot;:&quot;vertical&quot;,&quot;curved&quot;:0,&quot;rounded&quot;:0};" vertex="1" parent="GKMRpQgpA7d5Ei9l9tQw-1">
          <mxGeometry x="40" y="40" width="100" height="320" as="geometry" />
        </mxCell>
        <mxCell id="GKMRpQgpA7d5Ei9l9tQw-3" style="edgeStyle=elbowEdgeStyle;rounded=0;orthogonalLoop=1;jettySize=auto;html=1;elbow=horizontal;curved=0;endArrow=open;verticalAlign=bottom;endFill=0;labelBackgroundColor=none;endSize=12;" edge="1" parent="GKMRpQgpA7d5Ei9l9tQw-1">
          <mxGeometry relative="1" as="geometry">
            <mxPoint x="269.5" y="191" as="sourcePoint" />
            <mxPoint x="89.5" y="191" as="targetPoint" />
          </mxGeometry>
        </mxCell>
        <mxCell id="GKMRpQgpA7d5Ei9l9tQw-4" value="CardOut" style="edgeLabel;html=1;align=center;verticalAlign=middle;resizable=0;points=[];" vertex="1" connectable="0" parent="GKMRpQgpA7d5Ei9l9tQw-3">
          <mxGeometry x="-0.4944" y="3" relative="1" as="geometry">
            <mxPoint x="-43" y="-19" as="offset" />
          </mxGeometry>
        </mxCell>
        <mxCell id="GKMRpQgpA7d5Ei9l9tQw-5" style="edgeStyle=elbowEdgeStyle;rounded=0;orthogonalLoop=1;jettySize=auto;html=1;elbow=vertical;curved=0;labelBackgroundColor=none;endArrow=open;verticalAlign=bottom;endFill=0;endSize=12;" edge="1" parent="GKMRpQgpA7d5Ei9l9tQw-1">
          <mxGeometry relative="1" as="geometry">
            <mxPoint x="269.5" y="240" as="sourcePoint" />
            <mxPoint x="89.5" y="240" as="targetPoint" />
          </mxGeometry>
        </mxCell>
        <mxCell id="GKMRpQgpA7d5Ei9l9tQw-6" value="Msg(&quot;Please Enter&quot;)" style="edgeLabel;html=1;align=center;verticalAlign=middle;resizable=0;points=[];" vertex="1" connectable="0" parent="GKMRpQgpA7d5Ei9l9tQw-5">
          <mxGeometry x="0.4056" y="1" relative="1" as="geometry">
            <mxPoint x="38" y="-11" as="offset" />
          </mxGeometry>
        </mxCell>
        <mxCell id="GKMRpQgpA7d5Ei9l9tQw-7" value=":ACSystem&lt;br&gt;&lt;b&gt;ref &lt;/b&gt;AC_UserAccess" style="shape=umlLifeline;perimeter=lifelinePerimeter;whiteSpace=wrap;html=1;container=1;dropTarget=0;collapsible=0;recursiveResize=0;outlineConnect=0;portConstraint=eastwest;newEdgeStyle={&quot;edgeStyle&quot;:&quot;elbowEdgeStyle&quot;,&quot;elbow&quot;:&quot;vertical&quot;,&quot;curved&quot;:0,&quot;rounded&quot;:0};" vertex="1" parent="GKMRpQgpA7d5Ei9l9tQw-1">
          <mxGeometry x="200" y="40" width="140" height="320" as="geometry" />
        </mxCell>
        <mxCell id="GKMRpQgpA7d5Ei9l9tQw-8" value="ref" style="shape=umlFrame;whiteSpace=wrap;html=1;pointerEvents=0;recursiveResize=0;container=1;collapsible=0;width=50;swimlaneFillColor=default;" vertex="1" parent="GKMRpQgpA7d5Ei9l9tQw-1">
          <mxGeometry x="20" y="90" width="320" height="70" as="geometry" />
        </mxCell>
        <mxCell id="GKMRpQgpA7d5Ei9l9tQw-9" value="EstablishAccess(&quot;Illigal PIN&quot;)" style="text;align=center;html=1;verticalAlign=middle;" vertex="1" parent="GKMRpQgpA7d5Ei9l9tQw-8">
          <mxGeometry width="180" height="30" relative="1" as="geometry">
            <mxPoint x="70" y="25" as="offset" />
          </mxGeometry>
        </mxCell>
        <mxCell id="GKMRpQgpA7d5Ei9l9tQw-10" value="opt" style="shape=umlFrame;whiteSpace=wrap;html=1;pointerEvents=0;recursiveResize=0;container=1;collapsible=0;width=50;" vertex="1" parent="GKMRpQgpA7d5Ei9l9tQw-1">
          <mxGeometry x="10" y="210" width="340" height="120" as="geometry" />
        </mxCell>
        <mxCell id="GKMRpQgpA7d5Ei9l9tQw-11" value="ref" style="shape=umlFrame;whiteSpace=wrap;html=1;pointerEvents=0;recursiveResize=0;container=1;collapsible=0;width=50;swimlaneFillColor=default;" vertex="1" parent="GKMRpQgpA7d5Ei9l9tQw-10">
          <mxGeometry x="20" y="50" width="300" height="60" as="geometry" />
        </mxCell>
        <mxCell id="GKMRpQgpA7d5Ei9l9tQw-12" value="OpenDoor" style="text;align=center;html=1;" vertex="1" parent="GKMRpQgpA7d5Ei9l9tQw-11">
          <mxGeometry width="100" height="20" relative="1" as="geometry">
            <mxPoint x="100" y="20" as="offset" />
          </mxGeometry>
        </mxCell>
        <mxCell id="GKMRpQgpA7d5Ei9l9tQw-14" value="[pin OK]" style="text;html=1;align=center;verticalAlign=middle;resizable=0;points=[];autosize=1;strokeColor=none;fillColor=none;fontSize=11;fontFamily=Helvetica;fontColor=default;" vertex="1" parent="GKMRpQgpA7d5Ei9l9tQw-10">
          <mxGeometry x="230" width="60" height="30" as="geometry" />
        </mxCell>
        <mxCell id="GKMRpQgpA7d5Ei9l9tQw-13" value="&lt;b&gt;Figure 17.21 PartDecomposition - the decomposed part&lt;/b&gt;" style="text;html=1;align=left;verticalAlign=middle;resizable=0;points=[];autosize=1;strokeColor=none;fillColor=none;fontSize=11;fontFamily=Helvetica;fontColor=default;" vertex="1" parent="1">
          <mxGeometry x="10" y="370" width="310" height="30" as="geometry" />
        </mxCell>
        <mxCell id="GKMRpQgpA7d5Ei9l9tQw-15" value="annotation" parent="0" />
        <mxCell id="j_LWURjqygvLDn2e59c1-1" style="rounded=0;orthogonalLoop=1;jettySize=auto;html=1;endArrow=blockThin;endFill=0;endSize=12;strokeColor=#FF0000;" edge="1" parent="GKMRpQgpA7d5Ei9l9tQw-15" source="j_LWURjqygvLDn2e59c1-2">
          <mxGeometry relative="1" as="geometry">
            <mxPoint x="340" y="71" as="targetPoint" />
          </mxGeometry>
        </mxCell>
        <mxCell id="j_LWURjqygvLDn2e59c1-2" value="Part decomposition" style="text;html=1;align=left;verticalAlign=middle;resizable=0;points=[];autosize=1;strokeColor=none;fillColor=none;fontColor=#FF0000;fontStyle=2;fontSize=12;container=0;" vertex="1" parent="GKMRpQgpA7d5Ei9l9tQw-15">
          <mxGeometry x="400" y="20" width="130" height="30" as="geometry" />
        </mxCell>
      </root>
    </mxGraphModel>
  </diagram>
  <diagram id="ObSG0DQs5k4I7Wv-6EMz" name="17.22">
    <mxGraphModel dx="877" dy="545" grid="1" gridSize="10" guides="1" tooltips="1" connect="1" arrows="1" fold="1" page="1" pageScale="1" pageWidth="1169" pageHeight="827" math="0" shadow="0">
      <root>
        <mxCell id="0" />
        <mxCell id="1" value="uml" parent="0" />
        <mxCell id="621ePajJqWUbkoroUBGF-1" value="&lt;b&gt;sd &lt;/b&gt;AC_UserAccess" style="shape=umlFrame;whiteSpace=wrap;html=1;pointerEvents=0;recursiveResize=0;container=1;collapsible=0;width=160;fontFamily=Helvetica;fontSize=11;fontColor=default;" vertex="1" parent="1">
          <mxGeometry x="160" y="40" width="520" height="400" as="geometry" />
        </mxCell>
        <mxCell id="7Od0esP5X568_iE7pakP-3" style="edgeStyle=elbowEdgeStyle;shape=connector;curved=0;rounded=0;orthogonalLoop=1;jettySize=auto;elbow=vertical;html=1;entryX=0;entryY=0.483;entryDx=0;entryDy=0;entryPerimeter=0;labelBackgroundColor=none;strokeColor=default;fontFamily=Helvetica;fontSize=11;fontColor=default;endArrow=open;endFill=0;endSize=12;" edge="1" parent="621ePajJqWUbkoroUBGF-1" source="BbKVE6pb_1jDHQNB-977-1" target="621ePajJqWUbkoroUBGF-1">
          <mxGeometry relative="1" as="geometry" />
        </mxCell>
        <mxCell id="7Od0esP5X568_iE7pakP-4" value="CardOut" style="edgeLabel;html=1;align=center;verticalAlign=middle;resizable=0;points=[];fontSize=11;fontFamily=Helvetica;fontColor=default;" vertex="1" connectable="0" parent="7Od0esP5X568_iE7pakP-3">
          <mxGeometry x="0.2375" y="-1" relative="1" as="geometry">
            <mxPoint x="11" y="-14" as="offset" />
          </mxGeometry>
        </mxCell>
        <mxCell id="BbKVE6pb_1jDHQNB-977-1" value=":AccessPoint" style="shape=umlLifeline;perimeter=lifelinePerimeter;whiteSpace=wrap;html=1;container=1;dropTarget=0;collapsible=0;recursiveResize=0;outlineConnect=0;portConstraint=eastwest;newEdgeStyle={&quot;edgeStyle&quot;:&quot;elbowEdgeStyle&quot;,&quot;elbow&quot;:&quot;vertical&quot;,&quot;curved&quot;:0,&quot;rounded&quot;:0};fontFamily=Helvetica;fontSize=11;fontColor=default;part=0;size=40;enumerate=0;treeMoving=0;treeFolding=0;resizeWidth=0;connectable=1;noLabel=1;fillColor=none;" vertex="1" parent="621ePajJqWUbkoroUBGF-1">
          <mxGeometry x="40" y="40" width="100" height="360" as="geometry" />
        </mxCell>
        <mxCell id="BbKVE6pb_1jDHQNB-977-2" value=":Authorizer" style="shape=umlLifeline;perimeter=lifelinePerimeter;whiteSpace=wrap;html=1;container=1;dropTarget=0;collapsible=0;recursiveResize=0;outlineConnect=0;portConstraint=eastwest;newEdgeStyle={&quot;edgeStyle&quot;:&quot;elbowEdgeStyle&quot;,&quot;elbow&quot;:&quot;vertical&quot;,&quot;curved&quot;:0,&quot;rounded&quot;:0};fontFamily=Helvetica;fontSize=11;fontColor=default;" vertex="1" parent="621ePajJqWUbkoroUBGF-1">
          <mxGeometry x="240" y="40" width="100" height="360" as="geometry" />
        </mxCell>
        <mxCell id="BbKVE6pb_1jDHQNB-977-3" value=":Console" style="shape=umlLifeline;perimeter=lifelinePerimeter;whiteSpace=wrap;html=1;container=1;dropTarget=0;collapsible=0;recursiveResize=0;outlineConnect=0;portConstraint=eastwest;newEdgeStyle={&quot;edgeStyle&quot;:&quot;elbowEdgeStyle&quot;,&quot;elbow&quot;:&quot;vertical&quot;,&quot;curved&quot;:0,&quot;rounded&quot;:0};fontFamily=Helvetica;fontSize=11;fontColor=default;" vertex="1" parent="621ePajJqWUbkoroUBGF-1">
          <mxGeometry x="380" y="40" width="100" height="360" as="geometry" />
        </mxCell>
        <mxCell id="BbKVE6pb_1jDHQNB-977-4" value=":AccessPoint" style="shape=umlLifeline;perimeter=lifelinePerimeter;whiteSpace=wrap;html=1;container=1;dropTarget=0;collapsible=0;recursiveResize=0;outlineConnect=0;portConstraint=eastwest;newEdgeStyle={&quot;edgeStyle&quot;:&quot;elbowEdgeStyle&quot;,&quot;elbow&quot;:&quot;vertical&quot;,&quot;curved&quot;:0,&quot;rounded&quot;:0};fontFamily=Helvetica;fontSize=11;fontColor=default;part=0;size=40;enumerate=0;treeMoving=0;treeFolding=0;resizeWidth=0;connectable=1;noLabel=1;fillColor=none;" vertex="1" parent="621ePajJqWUbkoroUBGF-1">
          <mxGeometry x="100" y="40" width="100" height="360" as="geometry" />
        </mxCell>
        <mxCell id="BbKVE6pb_1jDHQNB-977-5" value=":AccessPoint" style="whiteSpace=wrap;html=1;fontFamily=Helvetica;fontSize=11;fontColor=default;" vertex="1" parent="621ePajJqWUbkoroUBGF-1">
          <mxGeometry x="40" y="40" width="160" height="40" as="geometry" />
        </mxCell>
        <mxCell id="BbKVE6pb_1jDHQNB-977-9" value="p1" style="whiteSpace=wrap;html=1;fontFamily=Helvetica;fontSize=11;fontColor=default;" vertex="1" parent="621ePajJqWUbkoroUBGF-1">
          <mxGeometry x="70" y="80" width="40" height="20" as="geometry" />
        </mxCell>
        <mxCell id="BbKVE6pb_1jDHQNB-977-10" value="p2" style="whiteSpace=wrap;html=1;fontFamily=Helvetica;fontSize=11;fontColor=default;" vertex="1" parent="621ePajJqWUbkoroUBGF-1">
          <mxGeometry x="130" y="80" width="40" height="20" as="geometry" />
        </mxCell>
        <mxCell id="7Od0esP5X568_iE7pakP-1" value="ref" style="shape=umlFrame;whiteSpace=wrap;html=1;pointerEvents=0;recursiveResize=0;container=1;collapsible=0;width=40;swimlaneFillColor=default;height=20;" vertex="1" parent="621ePajJqWUbkoroUBGF-1">
          <mxGeometry x="30" y="110" width="430" height="50" as="geometry" />
        </mxCell>
        <mxCell id="7Od0esP5X568_iE7pakP-2" value="AC_EstablishAccess(&quot;Illigal PIN&quot;)" style="text;align=center;html=1;verticalAlign=middle;" vertex="1" parent="7Od0esP5X568_iE7pakP-1">
          <mxGeometry width="180" height="30" relative="1" as="geometry">
            <mxPoint x="80" y="10" as="offset" />
          </mxGeometry>
        </mxCell>
        <mxCell id="7Od0esP5X568_iE7pakP-5" value="opt" style="shape=umlFrame;whiteSpace=wrap;html=1;pointerEvents=0;recursiveResize=0;container=1;collapsible=0;width=50;fontFamily=Helvetica;fontSize=11;fontColor=default;" vertex="1" parent="1">
          <mxGeometry x="140" y="260" width="560" height="160" as="geometry" />
        </mxCell>
        <mxCell id="7Od0esP5X568_iE7pakP-6" value="[pin ok]" style="text;align=center;html=1;fontSize=11;fontFamily=Helvetica;fontColor=default;fillColor=default;" vertex="1" parent="7Od0esP5X568_iE7pakP-5">
          <mxGeometry width="60" height="30" relative="1" as="geometry">
            <mxPoint x="140" y="10" as="offset" />
          </mxGeometry>
        </mxCell>
        <mxCell id="y6Pza9MnDaDh1Y-b4dOJ-1" value="ref" style="shape=umlFrame;whiteSpace=wrap;html=1;pointerEvents=0;recursiveResize=0;container=1;collapsible=0;width=50;swimlaneFillColor=default;" vertex="1" parent="7Od0esP5X568_iE7pakP-5">
          <mxGeometry x="50" y="70" width="430" height="60" as="geometry" />
        </mxCell>
        <mxCell id="y6Pza9MnDaDh1Y-b4dOJ-2" value="OpenDoor" style="text;align=center;html=1;" vertex="1" parent="y6Pza9MnDaDh1Y-b4dOJ-1">
          <mxGeometry width="100" height="20" relative="1" as="geometry">
            <mxPoint x="165" y="20" as="offset" />
          </mxGeometry>
        </mxCell>
        <mxCell id="7Od0esP5X568_iE7pakP-8" style="edgeStyle=elbowEdgeStyle;shape=connector;curved=0;rounded=0;orthogonalLoop=1;jettySize=auto;elbow=vertical;html=1;labelBackgroundColor=none;strokeColor=default;fontFamily=Helvetica;fontSize=11;fontColor=default;endArrow=open;endFill=0;endSize=12;" edge="1" parent="1">
          <mxGeometry relative="1" as="geometry">
            <mxPoint x="309.5" y="313" as="sourcePoint" />
            <mxPoint x="140" y="313" as="targetPoint" />
          </mxGeometry>
        </mxCell>
        <mxCell id="7Od0esP5X568_iE7pakP-9" value="Msg(&quot;Please Enter&quot;)" style="edgeLabel;html=1;align=center;verticalAlign=middle;resizable=0;points=[];fontSize=11;fontFamily=Helvetica;fontColor=default;" vertex="1" connectable="0" parent="7Od0esP5X568_iE7pakP-8">
          <mxGeometry x="0.1645" y="-2" relative="1" as="geometry">
            <mxPoint x="21" y="-10" as="offset" />
          </mxGeometry>
        </mxCell>
        <mxCell id="y6Pza9MnDaDh1Y-b4dOJ-3" value="&lt;b&gt;Figure 17.22 PartDecomposition - the decomposition&lt;/b&gt;" style="text;html=1;align=left;verticalAlign=middle;resizable=0;points=[];autosize=1;strokeColor=none;fillColor=none;fontSize=11;fontFamily=Helvetica;fontColor=default;" vertex="1" parent="1">
          <mxGeometry y="440" width="300" height="30" as="geometry" />
        </mxCell>
        <mxCell id="y6Pza9MnDaDh1Y-b4dOJ-4" value="annotation" parent="0" />
        <mxCell id="hcShawpdxeiElFro50-1-1" value="Inner&lt;br style=&quot;font-size: 12px;&quot;&gt;Connectable&lt;br style=&quot;font-size: 12px;&quot;&gt;Elements" style="text;html=1;align=left;verticalAlign=middle;resizable=0;points=[];autosize=1;strokeColor=none;fillColor=none;fontColor=#FF0000;fontStyle=2;fontSize=12;container=0;" vertex="1" parent="y6Pza9MnDaDh1Y-b4dOJ-4">
          <mxGeometry y="5" width="90" height="60" as="geometry" />
        </mxCell>
        <mxCell id="hcShawpdxeiElFro50-1-2" value="extra global&lt;br style=&quot;font-size: 12px;&quot;&gt;CombinedFragment" style="text;html=1;align=left;verticalAlign=middle;resizable=0;points=[];autosize=1;strokeColor=none;fillColor=none;fontColor=#FF0000;fontStyle=2;fontSize=12;container=0;" vertex="1" parent="y6Pza9MnDaDh1Y-b4dOJ-4">
          <mxGeometry y="205" width="130" height="40" as="geometry" />
        </mxCell>
        <mxCell id="n2CE25Um4s7lac9n0aWg-1" style="rounded=0;orthogonalLoop=1;jettySize=auto;html=1;endArrow=blockThin;endFill=0;endSize=12;strokeColor=#FF0000;exitX=0.818;exitY=0.857;exitDx=0;exitDy=0;exitPerimeter=0;" edge="1" parent="y6Pza9MnDaDh1Y-b4dOJ-4" source="hcShawpdxeiElFro50-1-1">
          <mxGeometry relative="1" as="geometry">
            <mxPoint x="228" y="129" as="targetPoint" />
            <mxPoint x="422" y="50" as="sourcePoint" />
          </mxGeometry>
        </mxCell>
        <mxCell id="n2CE25Um4s7lac9n0aWg-2" style="rounded=0;orthogonalLoop=1;jettySize=auto;html=1;endArrow=blockThin;endFill=0;endSize=12;strokeColor=#FF0000;exitX=0.563;exitY=1;exitDx=0;exitDy=0;exitPerimeter=0;" edge="1" parent="y6Pza9MnDaDh1Y-b4dOJ-4" source="hcShawpdxeiElFro50-1-2">
          <mxGeometry relative="1" as="geometry">
            <mxPoint x="137" y="294" as="targetPoint" />
            <mxPoint x="100" y="70" as="sourcePoint" />
          </mxGeometry>
        </mxCell>
      </root>
    </mxGraphModel>
  </diagram>
  <diagram id="opYRpKsx28tSS0NF10MD" name="17.23">
    <mxGraphModel dx="877" dy="545" grid="1" gridSize="10" guides="1" tooltips="1" connect="1" arrows="1" fold="1" page="1" pageScale="1" pageWidth="1169" pageHeight="827" math="0" shadow="0">
      <root>
        <mxCell id="0" />
        <mxCell id="1" value="uml" style="" parent="0" />
        <mxCell id="YDep1Xv7ZR4ONw851UK--1" value="&lt;b&gt;sd&lt;/b&gt; M" style="shape=umlFrame;whiteSpace=wrap;html=1;pointerEvents=0;recursiveResize=0;container=1;collapsible=0;width=80;fontFamily=Helvetica;fontSize=11;fontColor=default;height=30;" vertex="1" parent="1">
          <mxGeometry x="40" y="40" width="350" height="280" as="geometry" />
        </mxCell>
        <mxCell id="YDep1Xv7ZR4ONw851UK--5" style="edgeStyle=elbowEdgeStyle;shape=connector;curved=0;rounded=0;orthogonalLoop=1;jettySize=auto;elbow=vertical;html=1;labelBackgroundColor=none;strokeColor=default;fontFamily=Helvetica;fontSize=11;fontColor=default;endArrow=open;endFill=0;endSize=12;" edge="1" parent="YDep1Xv7ZR4ONw851UK--1">
          <mxGeometry relative="1" as="geometry">
            <mxPoint x="54.5" y="110" as="sourcePoint" />
            <mxPoint x="174.5" y="110" as="targetPoint" />
          </mxGeometry>
        </mxCell>
        <mxCell id="YDep1Xv7ZR4ONw851UK--6" value="m1" style="edgeLabel;html=1;align=center;verticalAlign=middle;resizable=0;points=[];fontSize=11;fontFamily=Helvetica;fontColor=default;" vertex="1" connectable="0" parent="YDep1Xv7ZR4ONw851UK--5">
          <mxGeometry x="-0.525" relative="1" as="geometry">
            <mxPoint x="30" y="-15" as="offset" />
          </mxGeometry>
        </mxCell>
        <mxCell id="YDep1Xv7ZR4ONw851UK--12" style="edgeStyle=elbowEdgeStyle;shape=connector;curved=0;rounded=0;orthogonalLoop=1;jettySize=auto;elbow=vertical;html=1;entryX=0.005;entryY=0.5;entryDx=0;entryDy=0;entryPerimeter=0;labelBackgroundColor=none;strokeColor=default;fontFamily=Helvetica;fontSize=11;fontColor=default;endArrow=open;endFill=0;endSize=12;" edge="1" parent="YDep1Xv7ZR4ONw851UK--1" source="YDep1Xv7ZR4ONw851UK--2" target="YDep1Xv7ZR4ONw851UK--9">
          <mxGeometry relative="1" as="geometry" />
        </mxCell>
        <mxCell id="YDep1Xv7ZR4ONw851UK--13" value="m3" style="edgeLabel;html=1;align=center;verticalAlign=middle;resizable=0;points=[];fontSize=11;fontFamily=Helvetica;fontColor=default;" vertex="1" connectable="0" parent="YDep1Xv7ZR4ONw851UK--12">
          <mxGeometry x="-0.3333" y="2" relative="1" as="geometry">
            <mxPoint x="10" y="-13" as="offset" />
          </mxGeometry>
        </mxCell>
        <mxCell id="YDep1Xv7ZR4ONw851UK--2" value=":r" style="shape=umlLifeline;perimeter=lifelinePerimeter;whiteSpace=wrap;html=1;container=1;dropTarget=0;collapsible=0;recursiveResize=0;outlineConnect=0;portConstraint=eastwest;newEdgeStyle={&quot;edgeStyle&quot;:&quot;elbowEdgeStyle&quot;,&quot;elbow&quot;:&quot;vertical&quot;,&quot;curved&quot;:0,&quot;rounded&quot;:0};fontFamily=Helvetica;fontSize=11;fontColor=default;" vertex="1" parent="YDep1Xv7ZR4ONw851UK--1">
          <mxGeometry x="20" y="40" width="70" height="230" as="geometry" />
        </mxCell>
        <mxCell id="YDep1Xv7ZR4ONw851UK--7" style="edgeStyle=elbowEdgeStyle;shape=connector;curved=0;rounded=0;orthogonalLoop=1;jettySize=auto;elbow=horizontal;html=1;labelBackgroundColor=none;strokeColor=default;fontFamily=Helvetica;fontSize=11;fontColor=default;endArrow=open;endFill=0;endSize=12;" edge="1" parent="YDep1Xv7ZR4ONw851UK--1">
          <mxGeometry relative="1" as="geometry">
            <mxPoint x="174.5" y="140" as="sourcePoint" />
            <mxPoint x="294.5" y="140" as="targetPoint" />
          </mxGeometry>
        </mxCell>
        <mxCell id="YDep1Xv7ZR4ONw851UK--8" value="m2" style="edgeLabel;html=1;align=center;verticalAlign=middle;resizable=0;points=[];fontSize=11;fontFamily=Helvetica;fontColor=default;" vertex="1" connectable="0" parent="YDep1Xv7ZR4ONw851UK--7">
          <mxGeometry x="0.425" relative="1" as="geometry">
            <mxPoint x="-25" y="-18" as="offset" />
          </mxGeometry>
        </mxCell>
        <mxCell id="YDep1Xv7ZR4ONw851UK--3" value="s[k]: B" style="shape=umlLifeline;perimeter=lifelinePerimeter;whiteSpace=wrap;html=1;container=1;dropTarget=0;collapsible=0;recursiveResize=0;outlineConnect=0;portConstraint=eastwest;newEdgeStyle={&quot;edgeStyle&quot;:&quot;elbowEdgeStyle&quot;,&quot;elbow&quot;:&quot;vertical&quot;,&quot;curved&quot;:0,&quot;rounded&quot;:0};fontFamily=Helvetica;fontSize=11;fontColor=default;" vertex="1" parent="YDep1Xv7ZR4ONw851UK--1">
          <mxGeometry x="140" y="40" width="70" height="230" as="geometry" />
        </mxCell>
        <mxCell id="YDep1Xv7ZR4ONw851UK--4" value="s[u]: B" style="shape=umlLifeline;perimeter=lifelinePerimeter;whiteSpace=wrap;html=1;container=1;dropTarget=0;collapsible=0;recursiveResize=0;outlineConnect=0;portConstraint=eastwest;newEdgeStyle={&quot;edgeStyle&quot;:&quot;elbowEdgeStyle&quot;,&quot;elbow&quot;:&quot;vertical&quot;,&quot;curved&quot;:0,&quot;rounded&quot;:0};fontFamily=Helvetica;fontSize=11;fontColor=default;" vertex="1" parent="YDep1Xv7ZR4ONw851UK--1">
          <mxGeometry x="260" y="40" width="70" height="230" as="geometry" />
        </mxCell>
        <mxCell id="YDep1Xv7ZR4ONw851UK--9" value="ref" style="shape=umlFrame;whiteSpace=wrap;html=1;pointerEvents=0;recursiveResize=0;container=1;collapsible=0;width=50;fontFamily=Helvetica;fontSize=11;fontColor=default;swimlaneFillColor=default;" vertex="1" parent="YDep1Xv7ZR4ONw851UK--1">
          <mxGeometry x="130" y="200" width="200" height="50" as="geometry" />
        </mxCell>
        <mxCell id="YDep1Xv7ZR4ONw851UK--10" value="N" style="text;align=center;html=1;fontSize=11;fontFamily=Helvetica;fontColor=default;" vertex="1" parent="YDep1Xv7ZR4ONw851UK--9">
          <mxGeometry width="30" height="30" relative="1" as="geometry">
            <mxPoint x="85" y="15" as="offset" />
          </mxGeometry>
        </mxCell>
        <mxCell id="YDep1Xv7ZR4ONw851UK--14" value="&lt;b&gt;sd&lt;/b&gt;&amp;nbsp;N" style="shape=umlFrame;whiteSpace=wrap;html=1;pointerEvents=0;recursiveResize=0;container=1;collapsible=0;width=80;fontFamily=Helvetica;fontSize=11;fontColor=default;height=30;" vertex="1" parent="1">
          <mxGeometry x="440" y="40" width="230" height="280" as="geometry" />
        </mxCell>
        <mxCell id="YDep1Xv7ZR4ONw851UK--38" style="edgeStyle=elbowEdgeStyle;shape=connector;curved=0;rounded=0;orthogonalLoop=1;jettySize=auto;elbow=horizontal;html=1;labelBackgroundColor=none;strokeColor=default;fontFamily=Helvetica;fontSize=11;fontColor=default;endArrow=open;endFill=0;endSize=12;" edge="1" parent="YDep1Xv7ZR4ONw851UK--14" source="YDep1Xv7ZR4ONw851UK--22" target="YDep1Xv7ZR4ONw851UK--23">
          <mxGeometry relative="1" as="geometry" />
        </mxCell>
        <mxCell id="YDep1Xv7ZR4ONw851UK--39" value="m3" style="edgeLabel;html=1;align=center;verticalAlign=middle;resizable=0;points=[];fontSize=11;fontFamily=Helvetica;fontColor=default;" vertex="1" connectable="0" parent="YDep1Xv7ZR4ONw851UK--38">
          <mxGeometry x="-0.2917" relative="1" as="geometry">
            <mxPoint x="-17" y="-15" as="offset" />
          </mxGeometry>
        </mxCell>
        <mxCell id="YDep1Xv7ZR4ONw851UK--40" style="edgeStyle=elbowEdgeStyle;shape=connector;curved=0;rounded=0;orthogonalLoop=1;jettySize=auto;elbow=vertical;html=1;labelBackgroundColor=none;strokeColor=default;fontFamily=Helvetica;fontSize=11;fontColor=default;endArrow=open;endFill=0;endSize=12;" edge="1" parent="YDep1Xv7ZR4ONw851UK--14">
          <mxGeometry relative="1" as="geometry">
            <mxPoint x="174.5" y="185" as="sourcePoint" />
            <mxPoint x="54.5" y="185" as="targetPoint" />
          </mxGeometry>
        </mxCell>
        <mxCell id="YDep1Xv7ZR4ONw851UK--41" value="m2" style="edgeLabel;html=1;align=center;verticalAlign=middle;resizable=0;points=[];fontSize=11;fontFamily=Helvetica;fontColor=default;" vertex="1" connectable="0" parent="YDep1Xv7ZR4ONw851UK--40">
          <mxGeometry x="-0.2583" y="1" relative="1" as="geometry">
            <mxPoint x="-14" y="-16" as="offset" />
          </mxGeometry>
        </mxCell>
        <mxCell id="YDep1Xv7ZR4ONw851UK--22" value="s[k]: B" style="shape=umlLifeline;perimeter=lifelinePerimeter;whiteSpace=wrap;html=1;container=1;dropTarget=0;collapsible=0;recursiveResize=0;outlineConnect=0;portConstraint=eastwest;newEdgeStyle={&quot;edgeStyle&quot;:&quot;elbowEdgeStyle&quot;,&quot;elbow&quot;:&quot;vertical&quot;,&quot;curved&quot;:0,&quot;rounded&quot;:0};fontFamily=Helvetica;fontSize=11;fontColor=default;" vertex="1" parent="YDep1Xv7ZR4ONw851UK--14">
          <mxGeometry x="140" y="40" width="70" height="230" as="geometry" />
        </mxCell>
        <mxCell id="YDep1Xv7ZR4ONw851UK--34" style="edgeStyle=elbowEdgeStyle;shape=connector;curved=0;rounded=0;orthogonalLoop=1;jettySize=auto;elbow=vertical;html=1;labelBackgroundColor=none;strokeColor=default;fontFamily=Helvetica;fontSize=11;fontColor=default;endArrow=open;endFill=0;endSize=12;" edge="1" parent="YDep1Xv7ZR4ONw851UK--14">
          <mxGeometry relative="1" as="geometry">
            <mxPoint x="54.5" y="110" as="sourcePoint" />
            <mxPoint x="174.5" y="110" as="targetPoint" />
          </mxGeometry>
        </mxCell>
        <mxCell id="YDep1Xv7ZR4ONw851UK--35" value="m3" style="edgeLabel;html=1;align=center;verticalAlign=middle;resizable=0;points=[];fontSize=11;fontFamily=Helvetica;fontColor=default;" vertex="1" connectable="0" parent="YDep1Xv7ZR4ONw851UK--34">
          <mxGeometry x="0.275" y="-3" relative="1" as="geometry">
            <mxPoint x="-16" y="-20" as="offset" />
          </mxGeometry>
        </mxCell>
        <mxCell id="YDep1Xv7ZR4ONw851UK--23" value="s[u]: B" style="shape=umlLifeline;perimeter=lifelinePerimeter;whiteSpace=wrap;html=1;container=1;dropTarget=0;collapsible=0;recursiveResize=0;outlineConnect=0;portConstraint=eastwest;newEdgeStyle={&quot;edgeStyle&quot;:&quot;elbowEdgeStyle&quot;,&quot;elbow&quot;:&quot;vertical&quot;,&quot;curved&quot;:0,&quot;rounded&quot;:0};fontFamily=Helvetica;fontSize=11;fontColor=default;" vertex="1" parent="YDep1Xv7ZR4ONw851UK--14">
          <mxGeometry x="20" y="40" width="70" height="230" as="geometry" />
        </mxCell>
        <mxCell id="YDep1Xv7ZR4ONw851UK--31" value="" style="shape=partialRectangle;whiteSpace=wrap;html=1;bottom=0;fillColor=none;point=[];connectable=0;targetShapes=umlLifeline;fontFamily=Helvetica;fontSize=11;fontColor=default;strokeWidth=2;" vertex="1" parent="YDep1Xv7ZR4ONw851UK--23">
          <mxGeometry x="15" y="80" width="40" height="20" as="geometry" />
        </mxCell>
        <mxCell id="YDep1Xv7ZR4ONw851UK--32" value="" style="shape=partialRectangle;whiteSpace=wrap;html=1;top=0;fillColor=none;point=[];connectable=0;targetShapes=umlLifeline;fontFamily=Helvetica;fontSize=11;fontColor=default;strokeWidth=2;" vertex="1" parent="YDep1Xv7ZR4ONw851UK--23">
          <mxGeometry x="15" y="160" width="40" height="20" as="geometry" />
        </mxCell>
        <mxCell id="YDep1Xv7ZR4ONw851UK--36" style="edgeStyle=elbowEdgeStyle;shape=connector;curved=0;rounded=0;orthogonalLoop=1;jettySize=auto;elbow=vertical;html=1;labelBackgroundColor=none;strokeColor=default;fontFamily=Helvetica;fontSize=11;fontColor=default;endArrow=open;endFill=0;endSize=12;" edge="1" parent="YDep1Xv7ZR4ONw851UK--14">
          <mxGeometry relative="1" as="geometry">
            <mxPoint y="110" as="sourcePoint" />
            <mxPoint x="54.5" y="110" as="targetPoint" />
          </mxGeometry>
        </mxCell>
        <mxCell id="YDep1Xv7ZR4ONw851UK--37" value="m3" style="edgeLabel;html=1;align=center;verticalAlign=middle;resizable=0;points=[];fontSize=11;fontFamily=Helvetica;fontColor=default;" vertex="1" connectable="0" parent="YDep1Xv7ZR4ONw851UK--36">
          <mxGeometry x="0.275" y="-3" relative="1" as="geometry">
            <mxPoint x="-11" y="-19" as="offset" />
          </mxGeometry>
        </mxCell>
        <mxCell id="YDep1Xv7ZR4ONw851UK--42" value="{x == 2}" style="text;html=1;align=center;verticalAlign=middle;resizable=0;points=[];autosize=1;fontSize=11;fontFamily=Helvetica;fillColor=default;" vertex="1" parent="YDep1Xv7ZR4ONw851UK--14">
          <mxGeometry x="25" y="230" width="60" height="30" as="geometry" />
        </mxCell>
        <mxCell id="YDep1Xv7ZR4ONw851UK--58" value="" style="group;fillColor=none;" vertex="1" connectable="0" parent="1">
          <mxGeometry x="240" y="330" width="320" height="180" as="geometry" />
        </mxCell>
        <mxCell id="YDep1Xv7ZR4ONw851UK--43" value="C" style="whiteSpace=wrap;html=1;fontFamily=Helvetica;fontSize=11;fontColor=default;" vertex="1" parent="YDep1Xv7ZR4ONw851UK--58">
          <mxGeometry width="320" height="30" as="geometry" />
        </mxCell>
        <mxCell id="YDep1Xv7ZR4ONw851UK--44" value="" style="whiteSpace=wrap;html=1;fontFamily=Helvetica;fontSize=11;fontColor=default;fillColor=none;" vertex="1" parent="YDep1Xv7ZR4ONw851UK--58">
          <mxGeometry y="30" width="320" height="80" as="geometry" />
        </mxCell>
        <mxCell id="YDep1Xv7ZR4ONw851UK--46" value="&lt;b&gt;sd&lt;/b&gt;" style="shape=umlFrame;whiteSpace=wrap;html=1;pointerEvents=0;recursiveResize=0;container=1;collapsible=0;width=50;fontFamily=Helvetica;fontSize=11;fontColor=default;" vertex="1" parent="YDep1Xv7ZR4ONw851UK--58">
          <mxGeometry x="20" y="44" width="120" height="50" as="geometry" />
        </mxCell>
        <mxCell id="YDep1Xv7ZR4ONw851UK--47" value="M" style="text;align=center;html=1;fontSize=11;fontFamily=Helvetica;fontColor=default;" vertex="1" parent="YDep1Xv7ZR4ONw851UK--46">
          <mxGeometry width="30" height="30" relative="1" as="geometry">
            <mxPoint x="45" y="10" as="offset" />
          </mxGeometry>
        </mxCell>
        <mxCell id="YDep1Xv7ZR4ONw851UK--48" value="&lt;b&gt;sd&lt;/b&gt;" style="shape=umlFrame;whiteSpace=wrap;html=1;pointerEvents=0;recursiveResize=0;container=1;collapsible=0;width=50;fontFamily=Helvetica;fontSize=11;fontColor=default;" vertex="1" parent="YDep1Xv7ZR4ONw851UK--58">
          <mxGeometry x="180" y="44" width="120" height="50" as="geometry" />
        </mxCell>
        <mxCell id="YDep1Xv7ZR4ONw851UK--49" value="N" style="text;align=center;html=1;fontSize=11;fontFamily=Helvetica;fontColor=default;" vertex="1" parent="YDep1Xv7ZR4ONw851UK--48">
          <mxGeometry width="30" height="30" relative="1" as="geometry">
            <mxPoint x="45" y="10" as="offset" />
          </mxGeometry>
        </mxCell>
        <mxCell id="YDep1Xv7ZR4ONw851UK--51" value="" style="whiteSpace=wrap;html=1;fontFamily=Helvetica;fontSize=11;fontColor=default;fillColor=none;" vertex="1" parent="YDep1Xv7ZR4ONw851UK--58">
          <mxGeometry y="110" width="320" height="70" as="geometry" />
        </mxCell>
        <mxCell id="YDep1Xv7ZR4ONw851UK--52" value=":r" style="whiteSpace=wrap;html=1;fontFamily=Helvetica;fontSize=11;fontColor=default;" vertex="1" parent="YDep1Xv7ZR4ONw851UK--58">
          <mxGeometry x="52.5" y="130" width="55" height="30" as="geometry" />
        </mxCell>
        <mxCell id="YDep1Xv7ZR4ONw851UK--56" value="s: B[*]" style="whiteSpace=wrap;html=1;fontFamily=Helvetica;fontSize=11;fontColor=default;" vertex="1" parent="YDep1Xv7ZR4ONw851UK--58">
          <mxGeometry x="213" y="130" width="55" height="30" as="geometry" />
        </mxCell>
        <mxCell id="YDep1Xv7ZR4ONw851UK--57" style="edgeStyle=elbowEdgeStyle;shape=connector;curved=0;rounded=0;orthogonalLoop=1;jettySize=auto;elbow=vertical;html=1;labelBackgroundColor=none;strokeColor=default;fontFamily=Helvetica;fontSize=11;fontColor=default;endArrow=open;endFill=0;endSize=12;" edge="1" parent="YDep1Xv7ZR4ONw851UK--58" source="YDep1Xv7ZR4ONw851UK--52" target="YDep1Xv7ZR4ONw851UK--56">
          <mxGeometry relative="1" as="geometry" />
        </mxCell>
        <mxCell id="YDep1Xv7ZR4ONw851UK--59" value="&lt;b&gt;Figure 17.23 Sequence Diagrams where two Lifelines refer to the same set of Parts (and Internal Structure)&lt;/b&gt;" style="text;html=1;align=left;verticalAlign=middle;resizable=0;points=[];autosize=1;strokeColor=none;fillColor=none;fontSize=11;fontFamily=Helvetica;fontColor=default;" vertex="1" parent="1">
          <mxGeometry x="40" y="510" width="580" height="30" as="geometry" />
        </mxCell>
        <mxCell id="YDep1Xv7ZR4ONw851UK--60" value="annotation" parent="0" />
        <mxCell id="MQF_TT62NMGNuqX-7oOD-1" value="Lifeline" style="text;html=1;align=left;verticalAlign=middle;resizable=0;points=[];autosize=1;strokeColor=none;fillColor=none;fontColor=#FF0000;fontStyle=2;fontSize=12;container=0;" vertex="1" parent="YDep1Xv7ZR4ONw851UK--60">
          <mxGeometry x="40" y="330" width="60" height="30" as="geometry" />
        </mxCell>
        <mxCell id="MQF_TT62NMGNuqX-7oOD-2" value="Class" style="text;html=1;align=left;verticalAlign=middle;resizable=0;points=[];autosize=1;strokeColor=none;fillColor=none;fontColor=#FF0000;fontStyle=2;fontSize=12;container=0;" vertex="1" parent="YDep1Xv7ZR4ONw851UK--60">
          <mxGeometry x="100" y="340" width="50" height="30" as="geometry" />
        </mxCell>
        <mxCell id="MQF_TT62NMGNuqX-7oOD-3" value="Interactions" style="text;html=1;align=left;verticalAlign=middle;resizable=0;points=[];autosize=1;strokeColor=none;fillColor=none;fontColor=#FF0000;fontStyle=2;fontSize=12;container=0;" vertex="1" parent="YDep1Xv7ZR4ONw851UK--60">
          <mxGeometry x="100" y="370" width="90" height="30" as="geometry" />
        </mxCell>
        <mxCell id="MQF_TT62NMGNuqX-7oOD-4" value="Internal structure" style="text;html=1;align=left;verticalAlign=middle;resizable=0;points=[];autosize=1;strokeColor=none;fillColor=none;fontColor=#FF0000;fontStyle=2;fontSize=12;container=0;" vertex="1" parent="YDep1Xv7ZR4ONw851UK--60">
          <mxGeometry x="100" y="440" width="110" height="30" as="geometry" />
        </mxCell>
        <mxCell id="MQF_TT62NMGNuqX-7oOD-5" value="Part" style="text;html=1;align=left;verticalAlign=middle;resizable=0;points=[];autosize=1;strokeColor=none;fillColor=none;fontColor=#FF0000;fontStyle=2;fontSize=12;container=0;" vertex="1" parent="YDep1Xv7ZR4ONw851UK--60">
          <mxGeometry x="100" y="459" width="50" height="30" as="geometry" />
        </mxCell>
        <mxCell id="MQF_TT62NMGNuqX-7oOD-6" value="Coregion" style="text;html=1;align=left;verticalAlign=middle;resizable=0;points=[];autosize=1;strokeColor=none;fillColor=none;fontColor=#FF0000;fontStyle=2;fontSize=12;container=0;" vertex="1" parent="YDep1Xv7ZR4ONw851UK--60">
          <mxGeometry x="630" y="340" width="70" height="30" as="geometry" />
        </mxCell>
        <mxCell id="MQF_TT62NMGNuqX-7oOD-7" value="State&lt;br&gt;Invariant" style="text;html=1;align=left;verticalAlign=middle;resizable=0;points=[];autosize=1;strokeColor=none;fillColor=none;fontColor=#FF0000;fontStyle=2;fontSize=12;container=0;" vertex="1" parent="YDep1Xv7ZR4ONw851UK--60">
          <mxGeometry x="630" y="375" width="70" height="40" as="geometry" />
        </mxCell>
        <mxCell id="LtvBtQOHu_SCW-Vz_oG_-1" style="rounded=0;orthogonalLoop=1;jettySize=auto;html=1;endArrow=blockThin;endFill=0;endSize=12;strokeColor=#FF0000;exitX=0.667;exitY=0.1;exitDx=0;exitDy=0;exitPerimeter=0;" edge="1" parent="YDep1Xv7ZR4ONw851UK--60" source="MQF_TT62NMGNuqX-7oOD-1">
          <mxGeometry relative="1" as="geometry">
            <mxPoint x="194" y="122" as="targetPoint" />
            <mxPoint x="90" y="60" as="sourcePoint" />
          </mxGeometry>
        </mxCell>
        <mxCell id="LtvBtQOHu_SCW-Vz_oG_-2" style="rounded=0;orthogonalLoop=1;jettySize=auto;html=1;endArrow=blockThin;endFill=0;endSize=12;strokeColor=#FF0000;" edge="1" parent="YDep1Xv7ZR4ONw851UK--60">
          <mxGeometry relative="1" as="geometry">
            <mxPoint x="388" y="348" as="targetPoint" />
            <mxPoint x="141" y="355" as="sourcePoint" />
          </mxGeometry>
        </mxCell>
        <mxCell id="LtvBtQOHu_SCW-Vz_oG_-3" style="rounded=0;orthogonalLoop=1;jettySize=auto;html=1;endArrow=blockThin;endFill=0;endSize=12;strokeColor=#FF0000;" edge="1" parent="YDep1Xv7ZR4ONw851UK--60">
          <mxGeometry relative="1" as="geometry">
            <mxPoint x="241" y="399" as="targetPoint" />
            <mxPoint x="171" y="385" as="sourcePoint" />
          </mxGeometry>
        </mxCell>
        <mxCell id="LtvBtQOHu_SCW-Vz_oG_-4" style="rounded=0;orthogonalLoop=1;jettySize=auto;html=1;endArrow=blockThin;endFill=0;endSize=12;strokeColor=#FF0000;" edge="1" parent="YDep1Xv7ZR4ONw851UK--60">
          <mxGeometry relative="1" as="geometry">
            <mxPoint x="253" y="450" as="targetPoint" />
            <mxPoint x="199" y="456" as="sourcePoint" />
          </mxGeometry>
        </mxCell>
        <mxCell id="LtvBtQOHu_SCW-Vz_oG_-5" style="rounded=0;orthogonalLoop=1;jettySize=auto;html=1;endArrow=blockThin;endFill=0;endSize=12;strokeColor=#FF0000;" edge="1" parent="YDep1Xv7ZR4ONw851UK--60">
          <mxGeometry relative="1" as="geometry">
            <mxPoint x="292" y="477" as="targetPoint" />
            <mxPoint x="132" y="474" as="sourcePoint" />
          </mxGeometry>
        </mxCell>
        <mxCell id="LtvBtQOHu_SCW-Vz_oG_-6" style="rounded=0;orthogonalLoop=1;jettySize=auto;html=1;endArrow=blockThin;endFill=0;endSize=12;strokeColor=#FF0000;exitX=0;exitY=0.133;exitDx=0;exitDy=0;exitPerimeter=0;" edge="1" parent="YDep1Xv7ZR4ONw851UK--60" source="MQF_TT62NMGNuqX-7oOD-6">
          <mxGeometry relative="1" as="geometry">
            <mxPoint x="494" y="211" as="targetPoint" />
            <mxPoint x="151" y="365" as="sourcePoint" />
          </mxGeometry>
        </mxCell>
        <mxCell id="LtvBtQOHu_SCW-Vz_oG_-7" style="rounded=0;orthogonalLoop=1;jettySize=auto;html=1;endArrow=blockThin;endFill=0;endSize=12;strokeColor=#FF0000;exitX=-0.029;exitY=0.525;exitDx=0;exitDy=0;exitPerimeter=0;" edge="1" parent="YDep1Xv7ZR4ONw851UK--60" source="MQF_TT62NMGNuqX-7oOD-7">
          <mxGeometry relative="1" as="geometry">
            <mxPoint x="518" y="287" as="targetPoint" />
            <mxPoint x="640" y="354" as="sourcePoint" />
          </mxGeometry>
        </mxCell>
      </root>
    </mxGraphModel>
  </diagram>
  <diagram id="Y8HGFJnkkiTf018CI9CQ" name="17.24">
    <mxGraphModel dx="877" dy="545" grid="1" gridSize="10" guides="1" tooltips="1" connect="1" arrows="1" fold="1" page="1" pageScale="1" pageWidth="1169" pageHeight="827" math="0" shadow="0">
      <root>
        <mxCell id="0" />
        <mxCell id="1" value="uml" style="locked=1;" parent="0" />
        <mxCell id="m3cm08h43FW5Pqas_hlN-1" value=":A" style="group;fillColor=none;" vertex="1" connectable="0" parent="1">
          <mxGeometry x="30" y="10" width="320" height="260" as="geometry" />
        </mxCell>
        <mxCell id="m3cm08h43FW5Pqas_hlN-2" value="E" style="whiteSpace=wrap;html=1;fontFamily=Helvetica;fontSize=11;fontColor=default;" vertex="1" parent="m3cm08h43FW5Pqas_hlN-1">
          <mxGeometry width="300" height="30" as="geometry" />
        </mxCell>
        <mxCell id="m3cm08h43FW5Pqas_hlN-3" value="" style="whiteSpace=wrap;html=1;fontFamily=Helvetica;fontSize=11;fontColor=default;fillColor=none;" vertex="1" parent="m3cm08h43FW5Pqas_hlN-1">
          <mxGeometry y="30" width="300" height="80" as="geometry" />
        </mxCell>
        <mxCell id="m3cm08h43FW5Pqas_hlN-4" value="&lt;b&gt;sd&lt;/b&gt;" style="shape=umlFrame;whiteSpace=wrap;html=1;pointerEvents=0;recursiveResize=0;container=1;collapsible=0;width=50;fontFamily=Helvetica;fontSize=11;fontColor=default;" vertex="1" parent="m3cm08h43FW5Pqas_hlN-1">
          <mxGeometry x="20" y="44" width="120" height="50" as="geometry" />
        </mxCell>
        <mxCell id="m3cm08h43FW5Pqas_hlN-5" value="P" style="text;align=center;html=1;fontSize=11;fontFamily=Helvetica;fontColor=default;" vertex="1" parent="m3cm08h43FW5Pqas_hlN-4">
          <mxGeometry width="30" height="30" relative="1" as="geometry">
            <mxPoint x="45" y="10" as="offset" />
          </mxGeometry>
        </mxCell>
        <mxCell id="m3cm08h43FW5Pqas_hlN-8" value="" style="whiteSpace=wrap;html=1;fontFamily=Helvetica;fontSize=11;fontColor=default;fillColor=none;" vertex="1" parent="m3cm08h43FW5Pqas_hlN-1">
          <mxGeometry y="110" width="300" height="150" as="geometry" />
        </mxCell>
        <mxCell id="m3cm08h43FW5Pqas_hlN-9" value=":A" style="whiteSpace=wrap;html=1;fontFamily=Helvetica;fontSize=11;fontColor=default;" vertex="1" parent="m3cm08h43FW5Pqas_hlN-1">
          <mxGeometry x="30" y="200" width="55" height="30" as="geometry" />
        </mxCell>
        <mxCell id="m3cm08h43FW5Pqas_hlN-10" value=":B" style="whiteSpace=wrap;html=1;fontFamily=Helvetica;fontSize=11;fontColor=default;" vertex="1" parent="m3cm08h43FW5Pqas_hlN-1">
          <mxGeometry x="213" y="200" width="55" height="30" as="geometry" />
        </mxCell>
        <mxCell id="m3cm08h43FW5Pqas_hlN-11" style="edgeStyle=elbowEdgeStyle;shape=connector;curved=0;rounded=0;orthogonalLoop=1;jettySize=auto;elbow=vertical;html=1;labelBackgroundColor=none;strokeColor=default;fontFamily=Helvetica;fontSize=11;fontColor=default;endArrow=none;endFill=0;endSize=12;" edge="1" parent="m3cm08h43FW5Pqas_hlN-1" source="m3cm08h43FW5Pqas_hlN-9" target="m3cm08h43FW5Pqas_hlN-10">
          <mxGeometry relative="1" as="geometry" />
        </mxCell>
        <mxCell id="m3cm08h43FW5Pqas_hlN-25" style="edgeStyle=elbowEdgeStyle;shape=connector;curved=0;rounded=0;orthogonalLoop=1;jettySize=auto;elbow=horizontal;html=1;entryX=0.5;entryY=0;entryDx=0;entryDy=0;labelBackgroundColor=none;strokeColor=default;fontFamily=Helvetica;fontSize=11;fontColor=default;endArrow=open;endFill=0;endSize=12;dashed=1;dashPattern=8 8;" edge="1" parent="m3cm08h43FW5Pqas_hlN-1" source="m3cm08h43FW5Pqas_hlN-24" target="m3cm08h43FW5Pqas_hlN-10">
          <mxGeometry relative="1" as="geometry" />
        </mxCell>
        <mxCell id="m3cm08h43FW5Pqas_hlN-29" value="y" style="edgeLabel;html=1;align=center;verticalAlign=middle;resizable=0;points=[];fontSize=11;fontFamily=Helvetica;fontColor=default;" vertex="1" connectable="0" parent="m3cm08h43FW5Pqas_hlN-25">
          <mxGeometry x="-0.015" y="1" relative="1" as="geometry">
            <mxPoint x="14" y="-3" as="offset" />
          </mxGeometry>
        </mxCell>
        <mxCell id="m3cm08h43FW5Pqas_hlN-26" style="edgeStyle=elbowEdgeStyle;shape=connector;curved=0;rounded=0;orthogonalLoop=1;jettySize=auto;elbow=vertical;html=1;entryX=0.5;entryY=0;entryDx=0;entryDy=0;labelBackgroundColor=none;strokeColor=default;fontFamily=Helvetica;fontSize=11;fontColor=default;endArrow=open;endFill=0;endSize=12;exitX=0;exitY=0.5;exitDx=0;exitDy=0;dashed=1;dashPattern=8 8;" edge="1" parent="m3cm08h43FW5Pqas_hlN-1" source="m3cm08h43FW5Pqas_hlN-24" target="m3cm08h43FW5Pqas_hlN-9">
          <mxGeometry relative="1" as="geometry">
            <Array as="points">
              <mxPoint x="140" y="145" />
            </Array>
          </mxGeometry>
        </mxCell>
        <mxCell id="m3cm08h43FW5Pqas_hlN-27" value="x" style="edgeLabel;html=1;align=center;verticalAlign=middle;resizable=0;points=[];fontSize=11;fontFamily=Helvetica;fontColor=default;" vertex="1" connectable="0" parent="m3cm08h43FW5Pqas_hlN-26">
          <mxGeometry x="0.6716" y="2" relative="1" as="geometry">
            <mxPoint x="10" as="offset" />
          </mxGeometry>
        </mxCell>
        <mxCell id="m3cm08h43FW5Pqas_hlN-24" value="w1: W" style="ellipse;whiteSpace=wrap;html=1;fontFamily=Helvetica;fontSize=11;fontColor=default;dashed=1;dashPattern=8 8;" vertex="1" parent="m3cm08h43FW5Pqas_hlN-1">
          <mxGeometry x="195.5" y="120" width="90" height="50" as="geometry" />
        </mxCell>
        <mxCell id="m3cm08h43FW5Pqas_hlN-23" value="&lt;b&gt;sd&lt;/b&gt; P" style="shape=umlFrame;whiteSpace=wrap;html=1;pointerEvents=0;recursiveResize=0;container=1;collapsible=0;width=60;fontFamily=Helvetica;fontSize=11;fontColor=default;height=30;" vertex="1" parent="1">
          <mxGeometry y="290" width="340" height="230" as="geometry" />
        </mxCell>
        <mxCell id="R4Fd3nDlFPkKFMGHUCE9-2" value=":A" style="shape=umlLifeline;perimeter=lifelinePerimeter;whiteSpace=wrap;html=1;container=1;dropTarget=0;collapsible=0;recursiveResize=0;outlineConnect=0;portConstraint=eastwest;newEdgeStyle={&quot;edgeStyle&quot;:&quot;elbowEdgeStyle&quot;,&quot;elbow&quot;:&quot;vertical&quot;,&quot;curved&quot;:0,&quot;rounded&quot;:0};fontFamily=Helvetica;fontSize=11;fontColor=default;" vertex="1" parent="m3cm08h43FW5Pqas_hlN-23">
          <mxGeometry x="40" y="50" width="100" height="170" as="geometry" />
        </mxCell>
        <mxCell id="R4Fd3nDlFPkKFMGHUCE9-3" value=":B" style="shape=umlLifeline;perimeter=lifelinePerimeter;whiteSpace=wrap;html=1;container=1;dropTarget=0;collapsible=0;recursiveResize=0;outlineConnect=0;portConstraint=eastwest;newEdgeStyle={&quot;edgeStyle&quot;:&quot;elbowEdgeStyle&quot;,&quot;elbow&quot;:&quot;vertical&quot;,&quot;curved&quot;:0,&quot;rounded&quot;:0};fontFamily=Helvetica;fontSize=11;fontColor=default;" vertex="1" parent="m3cm08h43FW5Pqas_hlN-23">
          <mxGeometry x="200" y="50" width="100" height="170" as="geometry" />
        </mxCell>
        <mxCell id="R4Fd3nDlFPkKFMGHUCE9-4" value="ref" style="shape=umlFrame;whiteSpace=wrap;html=1;pointerEvents=0;recursiveResize=0;container=1;collapsible=0;width=50;fontFamily=Helvetica;fontSize=11;fontColor=default;swimlaneFillColor=default;" vertex="1" parent="m3cm08h43FW5Pqas_hlN-23">
          <mxGeometry x="20" y="130" width="300" height="50" as="geometry" />
        </mxCell>
        <mxCell id="R4Fd3nDlFPkKFMGHUCE9-5" value="w1, Q" style="text;align=center;html=1;fontSize=11;fontFamily=Helvetica;fontColor=default;" vertex="1" parent="R4Fd3nDlFPkKFMGHUCE9-4">
          <mxGeometry width="50" height="30" relative="1" as="geometry">
            <mxPoint x="125" y="10" as="offset" />
          </mxGeometry>
        </mxCell>
        <mxCell id="m3cm08h43FW5Pqas_hlN-31" value="«collaboration»&lt;br&gt;&lt;b&gt;W&lt;/b&gt;" style="whiteSpace=wrap;html=1;fontFamily=Helvetica;fontSize=11;fontColor=default;" vertex="1" parent="1">
          <mxGeometry x="441" y="10" width="239" height="40" as="geometry" />
        </mxCell>
        <mxCell id="m3cm08h43FW5Pqas_hlN-32" value="" style="whiteSpace=wrap;html=1;fontFamily=Helvetica;fontSize=11;fontColor=default;fillColor=none;" vertex="1" parent="1">
          <mxGeometry x="441" y="50" width="239" height="80" as="geometry" />
        </mxCell>
        <mxCell id="m3cm08h43FW5Pqas_hlN-33" value="&lt;b&gt;sd&lt;/b&gt;" style="shape=umlFrame;whiteSpace=wrap;html=1;pointerEvents=0;recursiveResize=0;container=1;collapsible=0;width=50;fontFamily=Helvetica;fontSize=11;fontColor=default;" vertex="1" parent="1">
          <mxGeometry x="460" y="60" width="120" height="50" as="geometry" />
        </mxCell>
        <mxCell id="m3cm08h43FW5Pqas_hlN-34" value="Q" style="text;align=center;html=1;fontSize=11;fontFamily=Helvetica;fontColor=default;" vertex="1" parent="m3cm08h43FW5Pqas_hlN-33">
          <mxGeometry width="30" height="30" relative="1" as="geometry">
            <mxPoint x="45" y="10" as="offset" />
          </mxGeometry>
        </mxCell>
        <mxCell id="m3cm08h43FW5Pqas_hlN-35" value="" style="whiteSpace=wrap;html=1;fontFamily=Helvetica;fontSize=11;fontColor=default;fillColor=none;" vertex="1" parent="1">
          <mxGeometry x="441" y="130" width="239" height="70" as="geometry" />
        </mxCell>
        <mxCell id="m3cm08h43FW5Pqas_hlN-36" value="x: superA" style="whiteSpace=wrap;html=1;fontFamily=Helvetica;fontSize=11;fontColor=default;" vertex="1" parent="1">
          <mxGeometry x="460" y="150" width="70" height="30" as="geometry" />
        </mxCell>
        <mxCell id="m3cm08h43FW5Pqas_hlN-37" value="y: superB" style="whiteSpace=wrap;html=1;fontFamily=Helvetica;fontSize=11;fontColor=default;" vertex="1" parent="1">
          <mxGeometry x="590" y="150" width="70" height="30" as="geometry" />
        </mxCell>
        <mxCell id="m3cm08h43FW5Pqas_hlN-38" style="edgeStyle=elbowEdgeStyle;shape=connector;curved=0;rounded=0;orthogonalLoop=1;jettySize=auto;elbow=vertical;html=1;labelBackgroundColor=none;strokeColor=default;fontFamily=Helvetica;fontSize=11;fontColor=default;endArrow=none;endFill=0;endSize=12;" edge="1" parent="1" source="m3cm08h43FW5Pqas_hlN-36" target="m3cm08h43FW5Pqas_hlN-37">
          <mxGeometry relative="1" as="geometry" />
        </mxCell>
        <mxCell id="R4Fd3nDlFPkKFMGHUCE9-1" value="&lt;b&gt;sd&lt;/b&gt;&amp;nbsp;Q" style="shape=umlFrame;whiteSpace=wrap;html=1;pointerEvents=0;recursiveResize=0;container=1;collapsible=0;width=60;fontFamily=Helvetica;fontSize=11;fontColor=default;height=30;" vertex="1" parent="1">
          <mxGeometry x="360" y="310" width="300" height="210" as="geometry" />
        </mxCell>
        <mxCell id="R4Fd3nDlFPkKFMGHUCE9-10" style="edgeStyle=elbowEdgeStyle;shape=connector;curved=0;rounded=0;orthogonalLoop=1;jettySize=auto;elbow=horizontal;html=1;labelBackgroundColor=none;strokeColor=default;fontFamily=Helvetica;fontSize=11;fontColor=default;endArrow=open;endFill=0;endSize=12;" edge="1" parent="R4Fd3nDlFPkKFMGHUCE9-1" source="R4Fd3nDlFPkKFMGHUCE9-8" target="R4Fd3nDlFPkKFMGHUCE9-9">
          <mxGeometry relative="1" as="geometry" />
        </mxCell>
        <mxCell id="R4Fd3nDlFPkKFMGHUCE9-11" value="m1" style="edgeLabel;html=1;align=center;verticalAlign=middle;resizable=0;points=[];fontSize=11;fontFamily=Helvetica;fontColor=default;" vertex="1" connectable="0" parent="R4Fd3nDlFPkKFMGHUCE9-10">
          <mxGeometry x="-0.4417" y="-1" relative="1" as="geometry">
            <mxPoint x="27" y="-15" as="offset" />
          </mxGeometry>
        </mxCell>
        <mxCell id="R4Fd3nDlFPkKFMGHUCE9-8" value="x: superA" style="shape=umlLifeline;perimeter=lifelinePerimeter;whiteSpace=wrap;html=1;container=1;dropTarget=0;collapsible=0;recursiveResize=0;outlineConnect=0;portConstraint=eastwest;newEdgeStyle={&quot;edgeStyle&quot;:&quot;elbowEdgeStyle&quot;,&quot;elbow&quot;:&quot;vertical&quot;,&quot;curved&quot;:0,&quot;rounded&quot;:0};fontFamily=Helvetica;fontSize=11;fontColor=default;" vertex="1" parent="R4Fd3nDlFPkKFMGHUCE9-1">
          <mxGeometry x="40" y="50" width="100" height="150" as="geometry" />
        </mxCell>
        <mxCell id="R4Fd3nDlFPkKFMGHUCE9-12" style="edgeStyle=elbowEdgeStyle;shape=connector;curved=0;rounded=0;orthogonalLoop=1;jettySize=auto;elbow=horizontal;html=1;labelBackgroundColor=none;strokeColor=default;fontFamily=Helvetica;fontSize=11;fontColor=default;endArrow=open;endFill=0;endSize=12;" edge="1" parent="R4Fd3nDlFPkKFMGHUCE9-1">
          <mxGeometry relative="1" as="geometry">
            <mxPoint x="209.5" y="162" as="sourcePoint" />
            <mxPoint x="89.5" y="162" as="targetPoint" />
          </mxGeometry>
        </mxCell>
        <mxCell id="R4Fd3nDlFPkKFMGHUCE9-13" value="m2" style="edgeLabel;html=1;align=center;verticalAlign=middle;resizable=0;points=[];fontSize=11;fontFamily=Helvetica;fontColor=default;" vertex="1" connectable="0" parent="R4Fd3nDlFPkKFMGHUCE9-12">
          <mxGeometry x="-0.4583" y="-1" relative="1" as="geometry">
            <mxPoint x="-28" y="-13" as="offset" />
          </mxGeometry>
        </mxCell>
        <mxCell id="R4Fd3nDlFPkKFMGHUCE9-9" value="y: superB" style="shape=umlLifeline;perimeter=lifelinePerimeter;whiteSpace=wrap;html=1;container=1;dropTarget=0;collapsible=0;recursiveResize=0;outlineConnect=0;portConstraint=eastwest;newEdgeStyle={&quot;edgeStyle&quot;:&quot;elbowEdgeStyle&quot;,&quot;elbow&quot;:&quot;vertical&quot;,&quot;curved&quot;:0,&quot;rounded&quot;:0};fontFamily=Helvetica;fontSize=11;fontColor=default;" vertex="1" parent="R4Fd3nDlFPkKFMGHUCE9-1">
          <mxGeometry x="160" y="50" width="100" height="150" as="geometry" />
        </mxCell>
        <mxCell id="R4Fd3nDlFPkKFMGHUCE9-14" value="&lt;b&gt;Figure 17.24 Describing Collaborations and their binding&lt;/b&gt;" style="text;html=1;align=left;verticalAlign=middle;resizable=0;points=[];autosize=1;strokeColor=none;fillColor=none;fontSize=11;fontFamily=Helvetica;fontColor=default;" vertex="1" parent="1">
          <mxGeometry y="520" width="320" height="30" as="geometry" />
        </mxCell>
        <mxCell id="R4Fd3nDlFPkKFMGHUCE9-15" value="annotation" parent="0" />
        <mxCell id="8owqxtp9CYShpvxMIy57-1" value="CollaborationUse" style="text;html=1;align=left;verticalAlign=middle;resizable=0;points=[];autosize=1;strokeColor=none;fillColor=none;fontColor=#FF0000;fontStyle=2;fontSize=12;container=0;" vertex="1" parent="R4Fd3nDlFPkKFMGHUCE9-15">
          <mxGeometry x="390" y="200" width="120" height="30" as="geometry" />
        </mxCell>
        <mxCell id="8o9N5bOUSWbRA6DDQn37-1" style="rounded=0;orthogonalLoop=1;jettySize=auto;html=1;endArrow=blockThin;endFill=0;endSize=12;strokeColor=#FF0000;exitX=-0.025;exitY=0.367;exitDx=0;exitDy=0;exitPerimeter=0;" edge="1" parent="R4Fd3nDlFPkKFMGHUCE9-15" source="8owqxtp9CYShpvxMIy57-1">
          <mxGeometry relative="1" as="geometry">
            <mxPoint x="309" y="158" as="targetPoint" />
            <mxPoint x="141" y="355" as="sourcePoint" />
          </mxGeometry>
        </mxCell>
        <mxCell id="8o9N5bOUSWbRA6DDQn37-2" value="binding Parts" style="text;html=1;align=left;verticalAlign=middle;resizable=0;points=[];autosize=1;strokeColor=none;fillColor=none;fontColor=#FF0000;fontStyle=2;fontSize=12;container=0;" vertex="1" parent="R4Fd3nDlFPkKFMGHUCE9-15">
          <mxGeometry x="450" y="250" width="90" height="30" as="geometry" />
        </mxCell>
        <mxCell id="8o9N5bOUSWbRA6DDQn37-3" style="rounded=0;orthogonalLoop=1;jettySize=auto;html=1;endArrow=blockThin;endFill=0;endSize=12;strokeColor=#FF0000;exitX=0;exitY=0.5;exitDx=0;exitDy=0;exitPerimeter=0;" edge="1" parent="R4Fd3nDlFPkKFMGHUCE9-15" source="8o9N5bOUSWbRA6DDQn37-2">
          <mxGeometry relative="1" as="geometry">
            <mxPoint x="273" y="190" as="targetPoint" />
            <mxPoint x="397" y="221" as="sourcePoint" />
          </mxGeometry>
        </mxCell>
        <mxCell id="8o9N5bOUSWbRA6DDQn37-4" style="rounded=0;orthogonalLoop=1;jettySize=auto;html=1;endArrow=blockThin;endFill=0;endSize=12;strokeColor=#FF0000;" edge="1" parent="R4Fd3nDlFPkKFMGHUCE9-15">
          <mxGeometry relative="1" as="geometry">
            <mxPoint x="615" y="183" as="targetPoint" />
            <mxPoint x="530" y="260" as="sourcePoint" />
          </mxGeometry>
        </mxCell>
      </root>
    </mxGraphModel>
  </diagram>
</mxfile>
